/* XPM */
static char * arch_xpm[] = {
"20 20 201 2",
"  	c None",
". 	c #000000",
"+ 	c #1391CC",
"@ 	c #1D97D3",
"# 	c #1D97D2",
"$ 	c #1694D0",
"% 	c #FFFFFF",
"& 	c #3BA1D8",
"* 	c #1893D1",
"= 	c #3AA3D8",
"- 	c #1B99D6",
"; 	c #1C90CD",
"> 	c #279BD5",
", 	c #2391D6",
"' 	c #299CD5",
") 	c #3DA5DA",
"! 	c #32A0D6",
"~ 	c #3FA4D9",
"{ 	c #059CCC",
"] 	c #40A6D9",
"^ 	c #43A8DA",
"/ 	c #46A6DA",
"( 	c #48ABDB",
"_ 	c #46A8DB",
": 	c #37A2D5",
"< 	c #53AFDD",
"[ 	c #4CACDC",
"} 	c #51AEDC",
"| 	c #5BB3DF",
"1 	c #3FA8D9",
"2 	c #55B0DD",
"3 	c #2A9CD4",
"4 	c #1894CF",
"5 	c #4FB0DB",
"6 	c #1E96D2",
"7 	c #1C98CD",
"8 	c #1793D1",
"9 	c #1792D2",
"0 	c #178ADA",
"a 	c #1892D2",
"b 	c #1793D2",
"c 	c #1794D1",
"d 	c #1692D3",
"e 	c #1392C9",
"f 	c #1692D1",
"g 	c #1B95D5",
"h 	c #1693D0",
"i 	c #1995CF",
"j 	c #1C96CE",
"k 	c #1894D2",
"l 	c #1794D0",
"m 	c #1695D2",
"n 	c #1894D0",
"o 	c #1B95D2",
"p 	c #2299D3",
"q 	c #1392D0",
"r 	c #1994D1",
"s 	c #2599D3",
"t 	c #1893D2",
"u 	c #1793D1",
"v 	c #2399D3",
"w 	c #3CA4D8",
"x 	c #1F97D3",
"y 	c #1E96D2",
"z 	c #33A0D7",
"A 	c #2A9CD5",
"B 	c #289BD4",
"C 	c #2F9ED6",
"D 	c #43A7DB",
"E 	c #32A0D6",
"F 	c #309FD6",
"G 	c #2C9DD5",
"H 	c #3EA5D9",
"I 	c #40A6DA",
"J 	c #3EA5D9",
"K 	c #37A2D7",
"L 	c #34A0D7",
"M 	c #3BA4D8",
"N 	c #48AADB",
"O 	c #48AADB",
"P 	c #46A9DA",
"Q 	c #41A7D9",
"R 	c #3CA4D8",
"S 	c #38A2D7",
"T 	c #37A2D8",
"U 	c #45A8DA",
"V 	c #54AFDD",
"W 	c #52AFDD",
"X 	c #45A9DA",
"Y 	c #40A6D9",
"Z 	c #42A7D9",
"` 	c #50AEDC",
" .	c #56B0DD",
"..	c #57B1DE",
"+.	c #33A0D7",
"@.	c #41A6D9",
"#.	c #57B1DD",
"$.	c #50AEDC",
"%.	c #2198D3",
"&.	c #2D9ED5",
"*.	c #2F9ED6",
"=.	c #269AD4",
"-.	c #1793D1",
";.	c #1793D1",
">.	c #1793D1",
",.	c #1793D1",
"'.	c #1893D1",
").	c #1A94D2",
"!.	c #1793D1",
"~.	c #1793D1",
"{.	c #1793D1",
"].	c #1793D1",
"^.	c #1892D2",
"/.	c #1793D2",
"(.	c #1793D1",
"_.	c #1793D1",
":.	c #1793D1",
"<.	c #1793D1",
"[.	c #1793D1",
"}.	c #1793D1",
"|.	c #1793D1",
"1.	c #1793D1",
"2.	c #1793D1",
"3.	c #1793D1",
"4.	c #1793D1",
"5.	c #1793D1",
"6.	c #1793D1",
"7.	c #1793D1",
"8.	c #1793D1",
"9.	c #1793D1",
"0.	c #1793D1",
"a.	c #1793D1",
"b.	c #1794D1",
"c.	c #1793D1",
"d.	c #1692D3",
"e.	c #1793D1",
"f.	c #1793D1",
"g.	c #1793D1",
"h.	c #1793D1",
"i.	c #1793D1",
"j.	c #1793D1",
"k.	c #1793D1",
"l.	c #1793D1",
"m.	c #1793D1",
"n.	c #1692D1",
"o.	c #1793D1",
"p.	c #1793D1",
"q.	c #1793D1",
"r.	c #1793D1",
"s.	c #1793D1",
"t.	c #1793D1",
"u.	c #1793D1",
"v.	c #1793D0",
"w.	c #1793D1",
"x.	c #1793D1",
"y.	c #1793D1",
"z.	c #1793D1",
"A.	c #1793D1",
"B.	c #1793D1",
"C.	c #1793D1",
"D.	c #1793D1",
"E.	c #1694D1",
"F.	c #1793D1",
"G.	c #1793D1",
"H.	c #1793D1",
"I.	c #1894D4",
"J.	c #1794D0",
"K.	c #1793D1",
"L.	c #1793D1",
"M.	c #1793D1",
"N.	c #1793D1",
"O.	c #1793D1",
"P.	c #1793D1",
"Q.	c #1698D6",
"R.	c #1893D0",
"S.	c #1793D1",
"T.	c #1793D1",
"U.	c #1B95D2",
"V.	c #2499D4",
"W.	c #2097D3",
"X.	c #2C9DD5",
"Y.	c #269AD4",
"Z.	c #2F9ED6",
"`.	c #32A0D7",
" +	c #4FADDC",
".+	c #4AABDB",
"++	c #3BA4D8",
"@+	c #38A2D7",
"#+	c #51AEDC",
"$+	c #41A7D9",
"%+	c #329FD6",
"&+	c #2B9CD5",
"*+	c #299BD5",
"=+	c #2A9CD5",
"-+	c #3EA5D9",
";+	c #1A94D1",
">+	c #1693D1",
",+	c #1793D1",
"'+	c #1994D1",
")+	c #1893D1",
"!+	c #FFFFFF",
"                                        ",
"                  r s                   ",
"                  u v                   ",
"                  U.y                   ",
"                B V.W.C                 ",
"                F X.Y.G                 ",
"                K L Z.X.M               ",
"              P Q R S `.T               ",
"            W  +.+X Y ++@+Z             ",
"            ..#+$+%+&+*+=++.            ",
"          $.-+Y.;+>+>+>+,+'+%.          ",
"          =.)+>+-.;.>.,.,+,+'.          ",
"        ~.>+,+{.      (.,+,+,+_.        ",
"      <.,+,+,+[.        1.,+,+{.        ",
"      4.,+,+,+5.        7.,+8.9.0.      ",
"    (.,+,+,+,+c.        f.,+,+-.g.      ",
"    1.,+j.k.l.            q.r.,+s.t.    ",
"  w.,+x.y.                    B.C.,+D.  ",
"  G.                              L.M.  ",
"                                        "};
